<svg xmlns="http://www.w3.org/2000/svg" width="64.069" height="67" viewBox="0 0 64.069 67">
  <g id="map" transform="translate(-12 -12)">
    <path id="Path_28" data-name="Path 28" d="M63.743,71.484,51.7,48.231c-4.023-6.5-4.947-15.581-2.371-23.331S57.519,12.127,63.743,12c8.8.119,15.873,9.948,15.818,21.982A27.689,27.689,0,0,1,76,47.853Zm0-54.077c-6.621.1-11.93,7.521-11.864,16.575A20.7,20.7,0,0,0,54.826,44.8l8.918,17.278L72.9,44.446a21.048,21.048,0,0,0,2.709-10.464c.066-9.054-5.243-16.471-11.864-16.575Z" transform="translate(-19.716)" fill="#fff"/>
    <ellipse id="Ellipse_22" data-name="Ellipse 22" cx="5.5" cy="5" rx="5.5" ry="5" transform="translate(38 24)" fill="#fff"/>
    <path id="Path_29" data-name="Path 29" d="M71.493,72H66.916v5.408h4.576v37.854H16.576V77.408h4.576V72H16.576C14.049,72,12,74.421,12,77.408v37.854c0,2.987,2.049,5.408,4.576,5.408H71.493c2.527,0,4.576-2.421,4.576-5.408V77.408C76.069,74.421,74.02,72,71.493,72Z" transform="translate(0 -41.669)" fill="#fff"/>
  </g>
</svg>
